<svg xmlns="http://www.w3.org/2000/svg" xmlns:xlink="http://www.w3.org/1999/xlink" contentStyleType="text/css" data-diagram-type="CLASS" height="219px" preserveAspectRatio="none" style="width:126px;height:219px;background:#FFFFFF;" version="1.1" viewBox="0 0 126 219" width="126px" zoomAndPan="magnify"><defs/><g><!--class User--><g class="entity" data-entity="User" data-source-line="2" data-uid="ent0002" id="entity_User"><rect fill="#F1F1F1" height="80.5938" rx="2.5" ry="2.5" style="stroke:#181818;stroke-width:0.5;" width="111.9346" x="7.5" y="7"/><ellipse cx="44.111" cy="23" fill="#ADD1B2" rx="11" ry="11" style="stroke:#181818;stroke-width:1;"/><path d="M47.0797,28.6406 Q46.5016,28.9375 45.861,29.0781 Q45.2204,29.2344 44.5172,29.2344 Q42.0172,29.2344 40.6891,27.5938 Q39.3766,25.9375 39.3766,22.8125 Q39.3766,19.6875 40.6891,18.0313 Q42.0172,16.375 44.5172,16.375 Q45.2204,16.375 45.861,16.5313 Q46.5172,16.6875 47.0797,16.9844 L47.0797,19.7031 Q46.4547,19.125 45.861,18.8594 Q45.2672,18.5781 44.6422,18.5781 Q43.2985,18.5781 42.611,19.6563 Q41.9235,20.7188 41.9235,22.8125 Q41.9235,24.9063 42.611,25.9844 Q43.2985,27.0469 44.6422,27.0469 Q45.2672,27.0469 45.861,26.7813 Q46.4547,26.5 47.0797,25.9219 L47.0797,28.6406 Z " fill="#000000"/><text fill="#000000" font-family="sans-serif" font-size="14" lengthAdjust="spacing" textLength="31.9102" x="62.9134" y="27.8467">User</text><line style="stroke:#181818;stroke-width:0.5;" x1="8.5" x2="118.4346" y1="39" y2="39"/><ellipse cx="18.5" cy="52.6484" fill="none" rx="3" ry="3" style="stroke:#038048;stroke-width:1;"/><text fill="#000000" font-family="sans-serif" font-size="14" lengthAdjust="spacing" textLength="85.9346" x="27.5" y="55.9951">String name</text><line style="stroke:#181818;stroke-width:0.5;" x1="8.5" x2="118.4346" y1="63.2969" y2="63.2969"/><ellipse cx="18.5" cy="76.9453" fill="#84BE84" rx="3" ry="3" style="stroke:#038048;stroke-width:1;"/><text fill="#000000" font-family="sans-serif" font-size="14" lengthAdjust="spacing" textLength="45.0283" x="27.5" y="80.292">login()</text></g><!--class Admin--><g class="entity" data-entity="Admin" data-source-line="6" data-uid="ent0003" id="entity_Admin"><rect fill="#F1F1F1" height="64.2969" rx="2.5" ry="2.5" style="stroke:#181818;stroke-width:0.5;" width="112.9395" x="7" y="148"/><ellipse cx="38.2338" cy="164" fill="#ADD1B2" rx="11" ry="11" style="stroke:#181818;stroke-width:1;"/><path d="M41.2026,169.6406 Q40.6245,169.9375 39.9838,170.0781 Q39.3432,170.2344 38.6401,170.2344 Q36.1401,170.2344 34.812,168.5938 Q33.4995,166.9375 33.4995,163.8125 Q33.4995,160.6875 34.812,159.0313 Q36.1401,157.375 38.6401,157.375 Q39.3432,157.375 39.9838,157.5313 Q40.6401,157.6875 41.2026,157.9844 L41.2026,160.7031 Q40.5776,160.125 39.9838,159.8594 Q39.3901,159.5781 38.7651,159.5781 Q37.4213,159.5781 36.7338,160.6563 Q36.0463,161.7188 36.0463,163.8125 Q36.0463,165.9063 36.7338,166.9844 Q37.4213,168.0469 38.7651,168.0469 Q39.3901,168.0469 39.9838,167.7813 Q40.5776,167.5 41.2026,166.9219 L41.2026,169.6406 Z " fill="#000000"/><text fill="#000000" font-family="sans-serif" font-size="14" lengthAdjust="spacing" textLength="44.8643" x="55.8414" y="168.8467">Admin</text><line style="stroke:#181818;stroke-width:0.5;" x1="8" x2="118.9395" y1="180" y2="180"/><line style="stroke:#181818;stroke-width:0.5;" x1="8" x2="118.9395" y1="188" y2="188"/><ellipse cx="18" cy="201.6484" fill="#84BE84" rx="3" ry="3" style="stroke:#038048;stroke-width:1;"/><text fill="#000000" font-family="sans-serif" font-size="14" lengthAdjust="spacing" textLength="86.9395" x="27" y="204.9951">deleteUser()</text></g><!--reverse link User to Admin--><g class="link" data-entity-1="User" data-entity-2="Admin" data-source-line="7" data-uid="lnk4" id="link_User_Admin"><path d="M63.5,106.01 C63.5,125.21 63.5,129.96 63.5,147.91" fill="none" id="User-backto-Admin" style="stroke:#181818;stroke-width:1;"/><polygon fill="none" points="63.5,88.01,57.5,106.01,69.5,106.01,63.5,88.01" style="stroke:#181818;stroke-width:1;"/></g><!--SRC=[Iyv9B2vM22rEBLAevb9Gq0ukAShCIrV8IynD1N5pyjCpypGqkMgvai4A7LDoC_CKKYjAKlDIaBMbfEQabgI2-2350000]--></g></svg>