<svg xmlns="http://www.w3.org/2000/svg" xmlns:xlink="http://www.w3.org/1999/xlink" contentStyleType="text/css" data-diagram-type="SEQUENCE" height="356px" preserveAspectRatio="none" style="width:329px;height:356px;background:#FFFFFF;" version="1.1" viewBox="0 0 329 356" width="329px" zoomAndPan="magnify"><defs/><g><g><title>User</title><rect fill="#000000" fill-opacity="0.00000" height="194.7969" width="8" x="19.9551" y="81.2969"/><line style="stroke:#181818;stroke-width:0.5;stroke-dasharray:5,5;" x1="23" x2="23" y1="81.2969" y2="276.0938"/></g><g><title>Frontend</title><rect fill="#000000" fill-opacity="0.00000" height="194.7969" width="8" x="97.3452" y="81.2969"/><line style="stroke:#181818;stroke-width:0.5;stroke-dasharray:5,5;" x1="100.7905" x2="100.7905" y1="81.2969" y2="276.0938"/></g><g><title>API</title><rect fill="#000000" fill-opacity="0.00000" height="194.7969" width="8" x="216.8521" y="81.2969"/><line style="stroke:#181818;stroke-width:0.5;stroke-dasharray:5,5;" x1="220.7778" x2="220.7778" y1="81.2969" y2="276.0938"/></g><g><title>Database</title><rect fill="#000000" fill-opacity="0.00000" height="194.7969" width="8" x="288.377" y="81.2969"/><line style="stroke:#181818;stroke-width:0.5;stroke-dasharray:5,5;" x1="291.9766" x2="291.9766" y1="81.2969" y2="276.0938"/></g><g class="participant participant-head" data-participant="User"><text fill="#000000" font-family="sans-serif" font-size="14" lengthAdjust="spacing" textLength="31.9102" x="5" y="77.9951">User</text><ellipse cx="23.9551" cy="13.5" fill="#E2E2F0" rx="8" ry="8" style="stroke:#181818;stroke-width:0.5;"/><path d="M23.9551,21.5 L23.9551,48.5 M10.9551,29.5 L36.9551,29.5 M23.9551,48.5 L10.9551,63.5 M23.9551,48.5 L36.9551,63.5" fill="none" style="stroke:#181818;stroke-width:0.5;"/></g><g class="participant participant-tail" data-participant="User"><text fill="#000000" font-family="sans-serif" font-size="14" lengthAdjust="spacing" textLength="31.9102" x="5" y="288.0889">User</text><ellipse cx="23.9551" cy="299.8906" fill="#E2E2F0" rx="8" ry="8" style="stroke:#181818;stroke-width:0.5;"/><path d="M23.9551,307.8906 L23.9551,334.8906 M10.9551,315.8906 L36.9551,315.8906 M23.9551,334.8906 L10.9551,349.8906 M23.9551,334.8906 L36.9551,349.8906" fill="none" style="stroke:#181818;stroke-width:0.5;"/></g><g class="participant participant-head" data-participant="Frontend"><rect fill="#E2E2F0" height="30.2969" rx="2.5" ry="2.5" style="stroke:#181818;stroke-width:0.5;" width="77.1094" x="62.7905" y="50"/><text fill="#000000" font-family="sans-serif" font-size="14" lengthAdjust="spacing" textLength="63.1094" x="69.7905" y="69.9951">Frontend</text></g><g class="participant participant-tail" data-participant="Frontend"><rect fill="#E2E2F0" height="30.2969" rx="2.5" ry="2.5" style="stroke:#181818;stroke-width:0.5;" width="77.1094" x="62.7905" y="275.0938"/><text fill="#000000" font-family="sans-serif" font-size="14" lengthAdjust="spacing" textLength="63.1094" x="69.7905" y="295.0889">Frontend</text></g><g class="participant participant-head" data-participant="API"><rect fill="#E2E2F0" height="30.2969" rx="2.5" ry="2.5" style="stroke:#181818;stroke-width:0.5;" width="36.1484" x="202.7778" y="50"/><text fill="#000000" font-family="sans-serif" font-size="14" lengthAdjust="spacing" textLength="22.1484" x="209.7778" y="69.9951">API</text></g><g class="participant participant-tail" data-participant="API"><rect fill="#E2E2F0" height="30.2969" rx="2.5" ry="2.5" style="stroke:#181818;stroke-width:0.5;" width="36.1484" x="202.7778" y="275.0938"/><text fill="#000000" font-family="sans-serif" font-size="14" lengthAdjust="spacing" textLength="22.1484" x="209.7778" y="295.0889">API</text></g><g class="participant participant-head" data-participant="Database"><text fill="#000000" font-family="sans-serif" font-size="14" lengthAdjust="spacing" textLength="66.8008" x="255.9766" y="77.9951">Database</text><path d="M274.377,29 C274.377,19 292.377,19 292.377,19 C292.377,19 310.377,19 310.377,29 L310.377,55 C310.377,65 292.377,65 292.377,65 C292.377,65 274.377,65 274.377,55 L274.377,29" fill="#E2E2F0" style="stroke:#181818;stroke-width:0.5;"/><path d="M274.377,29 C274.377,39 292.377,39 292.377,39 C292.377,39 310.377,39 310.377,29" fill="none" style="stroke:#181818;stroke-width:0.5;"/></g><g class="participant participant-tail" data-participant="Database"><text fill="#000000" font-family="sans-serif" font-size="14" lengthAdjust="spacing" textLength="66.8008" x="255.9766" y="288.0889">Database</text><path d="M274.377,301.3906 C274.377,291.3906 292.377,291.3906 292.377,291.3906 C292.377,291.3906 310.377,291.3906 310.377,301.3906 L310.377,327.3906 C310.377,337.3906 292.377,337.3906 292.377,337.3906 C292.377,337.3906 274.377,337.3906 274.377,327.3906 L274.377,301.3906" fill="#E2E2F0" style="stroke:#181818;stroke-width:0.5;"/><path d="M274.377,301.3906 C274.377,311.3906 292.377,311.3906 292.377,311.3906 C292.377,311.3906 310.377,311.3906 310.377,301.3906" fill="none" style="stroke:#181818;stroke-width:0.5;"/></g><g class="message" data-participant-1="User" data-participant-2="Frontend"><polygon fill="#181818" points="89.3452,108.4297,99.3452,112.4297,89.3452,116.4297,93.3452,112.4297" style="stroke:#181818;stroke-width:1;"/><line style="stroke:#181818;stroke-width:1;" x1="23.9551" x2="95.3452" y1="112.4297" y2="112.4297"/><text fill="#000000" font-family="sans-serif" font-size="13" lengthAdjust="spacing" textLength="53.3901" x="30.9551" y="107.3638">Request</text></g><g class="message" data-participant-1="Frontend" data-participant-2="API"><polygon fill="#181818" points="208.8521,137.5625,218.8521,141.5625,208.8521,145.5625,212.8521,141.5625" style="stroke:#181818;stroke-width:1;"/><line style="stroke:#181818;stroke-width:1;" x1="101.3452" x2="214.8521" y1="141.5625" y2="141.5625"/><text fill="#000000" font-family="sans-serif" font-size="13" lengthAdjust="spacing" textLength="59.9663" x="108.3452" y="136.4966">HTTP call</text></g><g class="message" data-participant-1="API" data-participant-2="Database"><polygon fill="#181818" points="280.377,166.6953,290.377,170.6953,280.377,174.6953,284.377,170.6953" style="stroke:#181818;stroke-width:1;"/><line style="stroke:#181818;stroke-width:1;" x1="220.8521" x2="286.377" y1="170.6953" y2="170.6953"/><text fill="#000000" font-family="sans-serif" font-size="13" lengthAdjust="spacing" textLength="39.5078" x="227.8521" y="165.6294">Query</text></g><g class="message" data-participant-1="Database" data-participant-2="API"><polygon fill="#181818" points="231.8521,195.8281,221.8521,199.8281,231.8521,203.8281,227.8521,199.8281" style="stroke:#181818;stroke-width:1;"/><line style="stroke:#181818;stroke-width:1;" x1="225.8521" x2="291.377" y1="199.8281" y2="199.8281"/><text fill="#000000" font-family="sans-serif" font-size="13" lengthAdjust="spacing" textLength="47.5249" x="237.8521" y="194.7622">Results</text></g><g class="message" data-participant-1="API" data-participant-2="Frontend"><polygon fill="#181818" points="112.3452,224.9609,102.3452,228.9609,112.3452,232.9609,108.3452,228.9609" style="stroke:#181818;stroke-width:1;"/><line style="stroke:#181818;stroke-width:1;" x1="106.3452" x2="219.8521" y1="228.9609" y2="228.9609"/><text fill="#000000" font-family="sans-serif" font-size="13" lengthAdjust="spacing" textLength="95.5068" x="118.3452" y="223.895">JSON response</text></g><g class="message" data-participant-1="Frontend" data-participant-2="User"><polygon fill="#181818" points="34.9551,254.0938,24.9551,258.0938,34.9551,262.0938,30.9551,258.0938" style="stroke:#181818;stroke-width:1;"/><line style="stroke:#181818;stroke-width:1;" x1="28.9551" x2="100.3452" y1="258.0938" y2="258.0938"/><text fill="#000000" font-family="sans-serif" font-size="13" lengthAdjust="spacing" textLength="47.9185" x="40.9551" y="253.0278">Display</text></g><!--SRC=[LOun3i8m34Ltdy8Nu08Pa90g10nGsd80atg852KXTeRUdaOY1JR_Rp__JrPZneTmXaHPdNM9Wk8nnw0SvZ_pq9zX9gKd2MFt6G0gZBlznXWS-5LO59fJjojiy3HDFLho7bPPtVR5uBrmNg3fZHXOYbTfzz-CotYxOcP9CQmbVfDg7uETa-HfWJS0]--></g></svg>