<svg xmlns="http://www.w3.org/2000/svg" xmlns:xlink="http://www.w3.org/1999/xlink" contentStyleType="text/css" data-diagram-type="SEQUENCE" height="656px" preserveAspectRatio="none" style="width:673px;height:656px;background:#FFFFFF;" version="1.1" viewBox="0 0 673 656" width="673px" zoomAndPan="magnify"><defs/><g><g><title>Developer</title><rect fill="#000000" fill-opacity="0.00000" height="494.125" width="8" x="40.0015" y="81.2969"/><line style="stroke:#181818;stroke-width:0.5;stroke-dasharray:5,5;" x1="44" x2="44" y1="81.2969" y2="575.4219"/></g><g><title>npm scripts</title><rect fill="#000000" fill-opacity="0.00000" height="494.125" width="8" x="147.1875" y="81.2969"/><line style="stroke:#181818;stroke-width:0.5;stroke-dasharray:5,5;" x1="151.1104" x2="151.1104" y1="81.2969" y2="575.4219"/></g><g><title>SVG Generator</title><rect fill="#000000" fill-opacity="0.00000" height="494.125" width="8" x="293.9575" y="81.2969"/><line style="stroke:#181818;stroke-width:0.5;stroke-dasharray:5,5;" x1="297.5293" x2="297.5293" y1="81.2969" y2="575.4219"/></g><g><title>PlantUML JAR</title><rect fill="#000000" fill-opacity="0.00000" height="494.125" width="8" x="462.085" y="81.2969"/><line style="stroke:#181818;stroke-width:0.5;stroke-dasharray:5,5;" x1="465.4434" x2="465.4434" y1="81.2969" y2="575.4219"/></g><g><title>Hugo Build</title><rect fill="#000000" fill-opacity="0.00000" height="494.125" width="8" x="570.9497" y="81.2969"/><line style="stroke:#181818;stroke-width:0.5;stroke-dasharray:5,5;" x1="574.7266" x2="574.7266" y1="81.2969" y2="575.4219"/></g><g class="participant participant-head" data-participant="dev"><text fill="#000000" font-family="sans-serif" font-size="14" lengthAdjust="spacing" textLength="72.0029" x="5" y="77.9951">Developer</text><ellipse cx="44.0015" cy="13.5" fill="#ADD8E6" rx="8" ry="8" style="stroke:#181818;stroke-width:0.5;"/><path d="M44.0015,21.5 L44.0015,48.5 M31.0015,29.5 L57.0015,29.5 M44.0015,48.5 L31.0015,63.5 M44.0015,48.5 L57.0015,63.5" fill="none" style="stroke:#181818;stroke-width:0.5;"/></g><g class="participant participant-tail" data-participant="dev"><text fill="#000000" font-family="sans-serif" font-size="14" lengthAdjust="spacing" textLength="72.0029" x="5" y="587.417">Developer</text><ellipse cx="44.0015" cy="599.2188" fill="#ADD8E6" rx="8" ry="8" style="stroke:#181818;stroke-width:0.5;"/><path d="M44.0015,607.2188 L44.0015,634.2188 M31.0015,615.2188 L57.0015,615.2188 M44.0015,634.2188 L31.0015,649.2188 M44.0015,634.2188 L57.0015,649.2188" fill="none" style="stroke:#181818;stroke-width:0.5;"/></g><g class="participant participant-head" data-participant="npm"><rect fill="#008000" height="30.2969" rx="2.5" ry="2.5" style="stroke:#181818;stroke-width:0.5;" width="96.1543" x="103.1104" y="50"/><text fill="#000000" font-family="sans-serif" font-size="14" lengthAdjust="spacing" textLength="82.1543" x="110.1104" y="69.9951">npm scripts</text></g><g class="participant participant-tail" data-participant="npm"><rect fill="#008000" height="30.2969" rx="2.5" ry="2.5" style="stroke:#181818;stroke-width:0.5;" width="96.1543" x="103.1104" y="574.4219"/><text fill="#000000" font-family="sans-serif" font-size="14" lengthAdjust="spacing" textLength="82.1543" x="110.1104" y="594.417">npm scripts</text></g><g class="participant participant-head" data-participant="generator"><rect fill="#FFA500" height="30.2969" rx="2.5" ry="2.5" style="stroke:#181818;stroke-width:0.5;" width="118.8564" x="238.5293" y="50"/><text fill="#000000" font-family="sans-serif" font-size="14" lengthAdjust="spacing" textLength="104.8564" x="245.5293" y="69.9951">SVG Generator</text></g><g class="participant participant-tail" data-participant="generator"><rect fill="#FFA500" height="30.2969" rx="2.5" ry="2.5" style="stroke:#181818;stroke-width:0.5;" width="118.8564" x="238.5293" y="574.4219"/><text fill="#000000" font-family="sans-serif" font-size="14" lengthAdjust="spacing" textLength="104.8564" x="245.5293" y="594.417">SVG Generator</text></g><g class="participant participant-head" data-participant="jar"><rect fill="#FF0000" height="30.2969" rx="2.5" ry="2.5" style="stroke:#181818;stroke-width:0.5;" width="107.2832" x="412.4434" y="50"/><text fill="#000000" font-family="sans-serif" font-size="14" lengthAdjust="spacing" textLength="93.2832" x="419.4434" y="69.9951">PlantUML JAR</text></g><g class="participant participant-tail" data-participant="jar"><rect fill="#FF0000" height="30.2969" rx="2.5" ry="2.5" style="stroke:#181818;stroke-width:0.5;" width="107.2832" x="412.4434" y="574.4219"/><text fill="#000000" font-family="sans-serif" font-size="14" lengthAdjust="spacing" textLength="93.2832" x="419.4434" y="594.417">PlantUML JAR</text></g><g class="participant participant-head" data-participant="hugo"><rect fill="#FFC0CB" height="30.2969" rx="2.5" ry="2.5" style="stroke:#181818;stroke-width:0.5;" width="90.4463" x="529.7266" y="50"/><text fill="#000000" font-family="sans-serif" font-size="14" lengthAdjust="spacing" textLength="76.4463" x="536.7266" y="69.9951">Hugo Build</text></g><g class="participant participant-tail" data-participant="hugo"><rect fill="#FFC0CB" height="30.2969" rx="2.5" ry="2.5" style="stroke:#181818;stroke-width:0.5;" width="90.4463" x="529.7266" y="574.4219"/><text fill="#000000" font-family="sans-serif" font-size="14" lengthAdjust="spacing" textLength="76.4463" x="536.7266" y="594.417">Hugo Build</text></g><g class="message" data-participant-1="dev" data-participant-2="npm"><polygon fill="#181818" points="139.1875,108.4297,149.1875,112.4297,139.1875,116.4297,143.1875,112.4297" style="stroke:#181818;stroke-width:1;"/><line style="stroke:#181818;stroke-width:1;stroke-dasharray:2,2;" x1="44.0015" x2="145.1875" y1="112.4297" y2="112.4297"/><text fill="#000000" font-family="sans-serif" font-size="13" lengthAdjust="spacing" textLength="83.186" x="51.0015" y="107.3638">npm run dev</text></g><g class="message" data-participant-1="npm" data-participant-2="generator"><polygon fill="#181818" points="285.9575,137.5625,295.9575,141.5625,285.9575,145.5625,289.9575,141.5625" style="stroke:#181818;stroke-width:1;"/><line style="stroke:#181818;stroke-width:1;stroke-dasharray:2,2;" x1="151.1875" x2="291.9575" y1="141.5625" y2="141.5625"/><text fill="#000000" font-family="sans-serif" font-size="13" lengthAdjust="spacing" textLength="122.77" x="158.1875" y="136.4966">Generate SVG files</text></g><g class="message" data-participant-1="generator" data-participant-2="generator"><line style="stroke:#181818;stroke-width:1;stroke-dasharray:2,2;" x1="297.9575" x2="339.9575" y1="170.6953" y2="170.6953"/><line style="stroke:#181818;stroke-width:1;stroke-dasharray:2,2;" x1="339.9575" x2="339.9575" y1="170.6953" y2="183.6953"/><line style="stroke:#181818;stroke-width:1;stroke-dasharray:2,2;" x1="298.9575" x2="339.9575" y1="183.6953" y2="183.6953"/><polygon fill="#181818" points="308.9575,179.6953,298.9575,183.6953,308.9575,187.6953,304.9575,183.6953" style="stroke:#181818;stroke-width:1;"/><text fill="#000000" font-family="sans-serif" font-size="13" lengthAdjust="spacing" textLength="150.376" x="304.9575" y="165.6294">Find shortcode content</text></g><g class="message" data-participant-1="generator" data-participant-2="generator"><line style="stroke:#181818;stroke-width:1;stroke-dasharray:2,2;" x1="297.9575" x2="339.9575" y1="212.8281" y2="212.8281"/><line style="stroke:#181818;stroke-width:1;stroke-dasharray:2,2;" x1="339.9575" x2="339.9575" y1="212.8281" y2="225.8281"/><line style="stroke:#181818;stroke-width:1;stroke-dasharray:2,2;" x1="298.9575" x2="339.9575" y1="225.8281" y2="225.8281"/><polygon fill="#181818" points="308.9575,221.8281,298.9575,225.8281,308.9575,229.8281,304.9575,225.8281" style="stroke:#181818;stroke-width:1;"/><text fill="#000000" font-family="sans-serif" font-size="13" lengthAdjust="spacing" textLength="146.9038" x="304.9575" y="207.7622">Extract PlantUML code</text></g><g class="message" data-participant-1="generator" data-participant-2="generator"><line style="stroke:#181818;stroke-width:1;stroke-dasharray:2,2;" x1="297.9575" x2="339.9575" y1="254.9609" y2="254.9609"/><line style="stroke:#181818;stroke-width:1;stroke-dasharray:2,2;" x1="339.9575" x2="339.9575" y1="254.9609" y2="267.9609"/><line style="stroke:#181818;stroke-width:1;stroke-dasharray:2,2;" x1="298.9575" x2="339.9575" y1="267.9609" y2="267.9609"/><polygon fill="#181818" points="308.9575,263.9609,298.9575,267.9609,308.9575,271.9609,304.9575,267.9609" style="stroke:#181818;stroke-width:1;"/><text fill="#000000" font-family="sans-serif" font-size="13" lengthAdjust="spacing" textLength="149.9697" x="304.9575" y="249.895">Generate content hash</text></g><g class="message" data-participant-1="generator" data-participant-2="jar"><polygon fill="#181818" points="454.085,293.0938,464.085,297.0938,454.085,301.0938,458.085,297.0938" style="stroke:#181818;stroke-width:1;"/><line style="stroke:#181818;stroke-width:1;stroke-dasharray:2,2;" x1="297.9575" x2="460.085" y1="297.0938" y2="297.0938"/><text fill="#000000" font-family="sans-serif" font-size="13" lengthAdjust="spacing" textLength="92.0664" x="304.9575" y="292.0278">Generate SVG</text></g><g class="message" data-participant-1="jar" data-participant-2="generator"><polygon fill="#181818" points="308.9575,322.2266,298.9575,326.2266,308.9575,330.2266,304.9575,326.2266" style="stroke:#181818;stroke-width:1;"/><line style="stroke:#181818;stroke-width:1;stroke-dasharray:2,2;" x1="302.9575" x2="465.085" y1="326.2266" y2="326.2266"/><text fill="#000000" font-family="sans-serif" font-size="13" lengthAdjust="spacing" textLength="99.2329" x="314.9575" y="321.1606">Return SVG file</text></g><g class="message" data-participant-1="generator" data-participant-2="generator"><line style="stroke:#181818;stroke-width:1;stroke-dasharray:2,2;" x1="297.9575" x2="339.9575" y1="355.3594" y2="355.3594"/><line style="stroke:#181818;stroke-width:1;stroke-dasharray:2,2;" x1="339.9575" x2="339.9575" y1="355.3594" y2="368.3594"/><line style="stroke:#181818;stroke-width:1;stroke-dasharray:2,2;" x1="298.9575" x2="339.9575" y1="368.3594" y2="368.3594"/><polygon fill="#181818" points="308.9575,364.3594,298.9575,368.3594,308.9575,372.3594,304.9575,368.3594" style="stroke:#181818;stroke-width:1;"/><text fill="#000000" font-family="sans-serif" font-size="13" lengthAdjust="spacing" textLength="154.1274" x="304.9575" y="350.2935">Save to static/diagrams</text></g><g class="message" data-participant-1="hugo" data-participant-2="generator"><polygon fill="#181818" points="308.9575,393.4922,298.9575,397.4922,308.9575,401.4922,304.9575,397.4922" style="stroke:#181818;stroke-width:1;"/><line style="stroke:#181818;stroke-width:1;stroke-dasharray:2,2;" x1="302.9575" x2="573.9497" y1="397.4922" y2="397.4922"/><text fill="#000000" font-family="sans-serif" font-size="13" lengthAdjust="spacing" textLength="168.9365" x="314.9575" y="392.4263">Read pre-generated SVGs</text></g><g class="message" data-participant-1="hugo" data-participant-2="dev"><polygon fill="#181818" points="55.0015,422.625,45.0015,426.625,55.0015,430.625,51.0015,426.625" style="stroke:#181818;stroke-width:1;"/><line style="stroke:#181818;stroke-width:1;stroke-dasharray:2,2;" x1="49.0015" x2="573.9497" y1="426.625" y2="426.625"/><text fill="#000000" font-family="sans-serif" font-size="13" lengthAdjust="spacing" textLength="187.4019" x="61.0015" y="421.5591">Rendered site with diagrams</text></g><path d="M302,439.625 L302,494.625 L511,494.625 L511,449.625 L501,439.625 L302,439.625" fill="#FEFFDD" style="stroke:#181818;stroke-width:0.5;"/><path d="M501,439.625 L501,449.625 L511,449.625 L501,439.625" fill="#FEFFDD" style="stroke:#181818;stroke-width:0.5;"/><text fill="#000000" font-family="sans-serif" font-size="13" lengthAdjust="spacing" textLength="159.1929" x="308" y="456.6919">- Content-based caching</text><text fill="#000000" font-family="sans-serif" font-size="13" lengthAdjust="spacing" textLength="182.8379" x="308" y="471.8247">- No source file modification</text><text fill="#000000" font-family="sans-serif" font-size="13" lengthAdjust="spacing" textLength="188.6206" x="308" y="486.9575">- Hugo shortcode compatible</text><path d="M471,505.0234 L471,560.0234 L666,560.0234 L666,515.0234 L656,505.0234 L471,505.0234" fill="#FEFFDD" style="stroke:#181818;stroke-width:0.5;"/><path d="M656,505.0234 L656,515.0234 L666,515.0234 L656,505.0234" fill="#FEFFDD" style="stroke:#181818;stroke-width:0.5;"/><text fill="#000000" font-family="sans-serif" font-size="13" lengthAdjust="spacing" textLength="142.4478" x="477" y="522.0903">- Local Java execution</text><text fill="#000000" font-family="sans-serif" font-size="13" lengthAdjust="spacing" textLength="128.21" x="477" y="537.2231">- Requires Graphviz</text><text fill="#000000" font-family="sans-serif" font-size="13" lengthAdjust="spacing" textLength="174.751" x="477" y="552.356">- No external network calls</text><!--SRC=[TP91Rzim38Nl-XL4V3Psxs70sgqPYcmh4cntHc9iBJBbKNAQxTUFqXgdoP1S79cFZn-VbVQUHnGSO8jstqcSs3t440MQn_epQLROE8oHYVCc_mu4GZOZTu6CGPkrO_6H3XJYIB80JE3e0CtATts-3nCPzSZU-X4vmuB70P8LF-PKjUNSB8M8BtMR7qjO4fEW3gZAxdI2vfle-2lZvw2FxrzMyFHXNVK_KPLhSfUoprCNuNxomLLHNuxDi-UzCGMxRTyNfBlA9HENNKpvNmepmTq9ZQ1mxdoWPCvyLzf7pmvI7oNRw4Z3vAnHtjP_EcRHN67UgBJTbiyehyRGO-glv9h59RCfwLmPhIbFmlD6joTky42G8wIC6kmxvx7JMv9C3VC_KtGm2hMlxyYL0M-q6d1HiIFHMlBAz-9p3xEhuQZlf5mdYBkpjm5euU7VpkqMatPRjBtdhbQ-Ab-Sn59T1eRe_CvR1OvSw_KYlFqgmwZ5hUwjB51cNa_Mo6hdAbeCy8G713gIdMRBDVsQl522fU3O7_oV4mWTCmbh4rD-YR9Nq13IUT1V]--></g></svg>